<svg id="Capa_1" enable-background="new 0 0 512 512" height="512" viewBox="0 0 512 512" width="512" xmlns="http://www.w3.org/2000/svg"><g><path d="m300.5 241c-16.542 0-30 13.458-30 30h60c0-16.542-13.458-30-30-30z"/><path d="m390.5 61h-209.5v75c0 24.81-20.19 45-45 45s-45-20.19-45-45c0-8.28 6.72-15 15-15s15 6.72 15 15c0 8.27 6.73 15 15 15s15-6.73 15-15v-75c-10.492 0-19.508 0-30 0v-16c0-8.27 6.73-15 15-15s15 6.73 15 15v16h30v-16c0-24.81-20.19-45-45-45s-45 20.19-45 45v16h-45.5c-8.284 0-15 6.716-15 15v421c0 8.284 6.716 15 15 15h255v-87c0-8.284 6.716-15 15-15h75zm-284.5 150h90c8.284 0 15 6.716 15 15s-6.716 15-15 15h-90c-8.284 0-15-6.716-15-15s6.716-15 15-15zm0 60h90c8.284 0 15 6.716 15 15s-6.716 15-15 15h-90c-8.284 0-15-6.716-15-15s6.716-15 15-15zm-.5 150c-8.284 0-15-6.716-15-15s6.716-15 15-15 15 6.716 15 15-6.716 15-15 15zm0-60c-8.284 0-15-6.716-15-15s6.716-15 15-15 15 6.716 15 15-6.716 15-15 15zm150.5 60h-90.5c-8.284 0-15-6.716-15-15s6.716-15 15-15h90.5c8.284 0 15 6.716 15 15s-6.716 15-15 15zm89.5-60h-180c-8.284 0-15-6.716-15-15s6.716-15 15-15h180c8.284 0 15 6.716 15 15s-6.716 15-15 15zm15-75c0 8.284-6.716 15-15 15h-90c-8.284 0-15-6.716-15-15v-15c0-33.084 26.916-60 60-60-24.813 0-45-20.187-45-45s20.187-45 45-45 45 20.187 45 45-20.187 45-45 45c33.084 0 60 26.916 60 60z"/><circle cx="300.5" cy="166" r="15"/><path d="m330.5 440v38.787l38.787-38.787z"/><path d="m466.5 61h-46v364c0 3.985-1.601 7.815-4.396 10.609l-76.391 76.391h126.787c8.284 0 15-6.716 15-15v-421c0-8.284-6.716-15-15-15z"/></g></svg>